<svg width="147" height="16" viewBox="0 0 147 16" fill="none" xmlns="http://www.w3.org/2000/svg">
<g clip-path="url(#clip0_3514_2303)">
<g clip-path="url(#clip1_3514_2303)">
<path d="M10.255 12.108H21.1522V15.6585H8.4857V6.02293L-0.290161 0.519316H10.255V12.1051V12.108ZM21.1522 0.519316H29.9281L21.1522 6.02011V0.519316ZM59.5604 9.00053C56.2613 9.00053 53.954 10.4399 53.9483 12.5003C53.954 14.5606 56.2613 16 59.5604 16C62.8594 16 65.1668 14.5606 65.1724 12.5003C65.1668 10.4399 62.8594 9.00053 59.5604 9.00053ZM59.5604 14.0695C58.0728 14.0695 56.4811 13.6659 56.4726 12.5341C56.4811 11.3995 58.0728 10.9959 59.5604 10.9959C61.0479 10.9959 62.6397 11.3995 62.6481 12.5313C62.6397 13.6659 61.0479 14.0695 59.5604 14.0695ZM63.2229 0H65.6288V9.00053H63.2229V5.55724H62.2058V8.18486H59.8534V0.177809H62.2058V3.55618H63.2229V0ZM55.1034 6.19792L52.8299 8.47557L51.1395 6.78215L53.6948 4.22226C54.1765 3.70012 54.1681 3.32475 54.1681 2.86753H51.5734V0.736638H59.2026V2.8647H56.6079C56.6079 3.32193 56.5994 3.6973 57.0812 4.21944L59.6364 6.77933L57.9461 8.47275L55.6725 6.1951C55.5739 6.09631 55.464 5.96084 55.388 5.86488C55.3119 5.96366 55.202 6.09631 55.1034 6.1951V6.19792ZM44.1611 5.44999H46.9107V10.1492H49.4829V0H46.9107V3.44893H44.1611V0.736638H35.9712V8.18204H44.1611V5.44999ZM41.6452 6.04551H38.487V2.87317H41.6452V6.04551ZM45.9782 11.0778L50.0492 14.0385L48.6406 16L44.5696 13.0393C44.2568 12.8051 43.9808 12.568 43.7469 12.3337C43.5131 12.568 43.237 12.8051 42.9243 13.0393L38.8533 16L37.4446 14.0385L41.5156 11.0778C42.358 10.471 42.4369 10.1944 42.4369 9.86135V9.20938H45.0401V9.86135C45.0401 10.1944 45.1387 10.4682 45.981 11.0778H45.9782ZM96.805 6.02293H99.1405V8.20462H96.805V16.0028H94.2328V0H96.805V6.02293ZM141.625 8.83119H132.931V3.62956H138.388V2.54578H132.931V0.41771H140.986V5.54031H135.529V6.70312H141.625V8.83119ZM127.947 0H130.519V16H127.947V7.84618H125.178V5.66449H127.947V0ZM146.691 0V9.30252H144.116V5.15647H141.679V2.97478H144.116V0H146.691ZM123.147 6.93456L126.494 11.6253L124.572 13.0111L121.225 8.32034C121.149 8.22438 121.09 8.12842 121.034 8.04939C120.977 8.1256 120.918 8.22156 120.842 8.32034L117.495 13.0111L115.574 11.6253L118.921 6.93456C119.67 5.87617 119.786 5.4895 119.786 4.69924V4.21379H116.444V2.08573H119.774V0H122.293V2.08573H125.623V4.21379H122.282V4.69924C122.282 5.4895 122.397 5.87335 123.147 6.93456ZM72.1818 0.519316C69.204 0.530605 67.5643 3.0538 67.5643 6.93456C67.5643 10.8153 69.204 13.3385 72.1818 13.3498C75.1597 13.3385 76.7994 10.8153 76.7994 6.93456C76.7994 3.0538 75.1597 0.530605 72.1818 0.519316ZM72.1818 11.281C70.5196 11.2669 70.1731 8.73805 70.1731 6.93456C70.1731 5.13106 70.5225 2.60222 72.1818 2.58811C73.844 2.60222 74.1906 5.13106 74.1906 6.93456C74.1906 8.73805 73.8412 11.2669 72.1818 11.281ZM135.041 16H146.691V10.0335H135.041V16ZM137.56 12.0176H144.135V14.0187H137.56V12.0176ZM115.703 8.20462H113.385V16.0028H110.813V0H113.385V6.02293H115.703V8.20462ZM90.2407 6.93456L93.5876 11.6253L91.6662 13.0111L88.3193 8.32034C88.2432 8.22438 88.1841 8.12842 88.1277 8.04939C88.0714 8.1256 88.0122 8.22156 87.9361 8.32034L84.5892 13.0111L82.6678 11.6253L86.0147 6.93456C86.7641 5.87617 86.8797 5.4895 86.8797 4.69924V0.736638H89.3786V4.69924C89.3786 5.4895 89.4941 5.87335 90.2435 6.93456H90.2407ZM78.6165 0H81.1887V16H78.6165V0ZM106.756 6.93456L110.103 11.6253L108.181 13.0111L104.834 8.32034C104.758 8.22438 104.699 8.12842 104.643 8.04939C104.586 8.1256 104.527 8.22156 104.451 8.32034L101.104 13.0111L99.1828 11.6253L102.53 6.93456C103.279 5.87617 103.395 5.4895 103.395 4.69924V3.14976H100.166V1.0217H109.122V3.14976H105.894V4.69924C105.894 5.4895 106.009 5.87335 106.758 6.93456H106.756Z" fill="#FF6000"/>
</g>
</g>
<defs>
<clipPath id="clip0_3514_2303">
<rect width="146.667" height="16" fill="white"/>
</clipPath>
<clipPath id="clip1_3514_2303">
<rect width="146.667" height="16" fill="white"/>
</clipPath>
</defs>
</svg>
